<svg xmlns="http://www.w3.org/2000/svg" viewBox="0 0 11.34 11.34"><defs><style>.cls-1{fill:#fff;}</style></defs><title>iconIG</title><g id="Layer_2" data-name="Layer 2"><g id="iconIG"><path class="cls-1" d="M10,0H1.35A1.35,1.35,0,0,0,0,1.34V10a1.35,1.35,0,0,0,1.35,1.34H10A1.35,1.35,0,0,0,11.34,10V1.34A1.35,1.35,0,0,0,10,0ZM7.88,1.61a.32.32,0,0,1,.32-.32H9.73a.32.32,0,0,1,.32.32V3.14a.32.32,0,0,1-.32.32H8.19a.32.32,0,0,1-.32-.32ZM5.68,3.51A2.18,2.18,0,1,1,3.5,5.68,2.18,2.18,0,0,1,5.68,3.51Zm4.39,6.2a.32.32,0,0,1-.32.32H1.61A.32.32,0,0,1,1.3,9.7V4.77H2.36A3.45,3.45,0,1,0,9,4.77h1.06Z"/></g></g></svg>