<svg id="Layer_1" data-name="Layer 1" xmlns="http://www.w3.org/2000/svg" viewBox="0 0 343.36 329.52"><defs><style>.cls-1{fill:#222162;}.cls-2{fill:#f7941d;}</style></defs><title>logo</title><path class="cls-1" d="M341.13,173a42,42,0,0,0-3.85-11.75,17.41,17.41,0,0,0-5.7-6.62,12.7,12.7,0,0,0-7-2.08,10.94,10.94,0,0,0-5.11,1.19,15.49,15.49,0,0,0-4.07,3,21.82,21.82,0,0,0-3.11,4.17q-1.33,2.31-2.37,4.54V153.86H295.66v98.65h14.28V221.85q1,2.23,2.37,4.54a19.74,19.74,0,0,0,3.11,4.09,14.93,14.93,0,0,0,4.07,2.9,11.55,11.55,0,0,0,5.11,1.12,12.7,12.7,0,0,0,7-2.08,17.29,17.29,0,0,0,5.7-6.7,43.07,43.07,0,0,0,3.85-11.83,93.07,93.07,0,0,0,1.41-17.48v-5.8A94.05,94.05,0,0,0,341.13,173ZM328.4,195.82q0,12.35-2.44,18.82t-6.57,6.47q-4.14,0-6.87-6.47T309.8,196v-4.91q0-12.2,2.73-18.67t6.87-6.47q4.13,0,6.57,6.47t2.44,19Z"/><path class="cls-1" d="M238.83,153.86h14.28v11.61q1-2.23,2.37-4.54a21.82,21.82,0,0,1,3.11-4.17,15.49,15.49,0,0,1,4.07-3,10.94,10.94,0,0,1,5.11-1.19,12.7,12.7,0,0,1,7,2.08,17.41,17.41,0,0,1,5.7,6.62A42,42,0,0,1,284.29,173a94.05,94.05,0,0,1,1.41,17.63v5.8a93.07,93.07,0,0,1-1.41,17.48,43.07,43.07,0,0,1-3.85,11.83,17.29,17.29,0,0,1-5.7,6.7,12.7,12.7,0,0,1-7,2.08,11.55,11.55,0,0,1-5.11-1.12,14.93,14.93,0,0,1-4.07-2.9,19.74,19.74,0,0,1-3.11-4.09q-1.33-2.3-2.37-4.54v30.65H238.83Zm23.73,67.25q4.13,0,6.57-6.47t2.44-18.82v-4.46q0-12.5-2.44-19t-6.57-6.47q-4.14,0-6.87,6.47T253,191.05V196q0,12.2,2.73,18.67T262.56,221.11Z"/><path class="cls-1" d="M152.53,153.86h14.14V164a28.76,28.76,0,0,1,6-8.26,12.14,12.14,0,0,1,8.63-3.2q5.5,0,8.7,3a25.25,25.25,0,0,1,5.28,7.37,32,32,0,0,1,5.88-7.07,13.21,13.21,0,0,1,9.3-3.35,15.73,15.73,0,0,1,6.55,1.41,15.25,15.25,0,0,1,5.43,4.17A20.37,20.37,0,0,1,226,165a31.66,31.66,0,0,1,1.34,9.67v58.48H213.24V177.51q0-12.35-7.74-12.35a7.2,7.2,0,0,0-6.1,3.35q-2.38,3.35-2.38,9.3v55.35H182.88V177.51q0-12.35-7.74-12.35a7.2,7.2,0,0,0-6.1,3.35q-2.38,3.35-2.38,9.3v55.35H152.53Z"/><path class="cls-1" d="M113.7,234.5q-7.14,0-11.61-6.47t-4.46-17.19v-2.08q0-12.79,5-19a16.41,16.41,0,0,1,13.47-6.25,21.14,21.14,0,0,1,5.92.82,28,28,0,0,1,5.33,2.16v-6.2q0-13.88-12.13-13.88a23.6,23.6,0,0,0-7,1,53.48,53.48,0,0,0-6.66,2.57V156.39a48.66,48.66,0,0,1,7.59-2.53,36.44,36.44,0,0,1,8.48-.89q11.46,0,17.63,6.62t6.17,19.57v54H127.24l.15-9.37a22.33,22.33,0,0,1-5.65,8A12.07,12.07,0,0,1,113.7,234.5Zm5.14-11.9a7.4,7.4,0,0,0,6.12-3.2,13.26,13.26,0,0,0,2.43-8.26V196.86a34.5,34.5,0,0,0-3.69-1.41,12.87,12.87,0,0,0-4-.67,7.06,7.06,0,0,0-6.19,3.27q-2.21,3.28-2.21,9.82v1.79q0,6.7,2.06,9.82A6.28,6.28,0,0,0,118.83,222.6Z"/><path class="cls-2" d="M275.95,325.94c.55-.33,1.1-.67,1.62-1.06a23.65,23.65,0,0,0,8.84-26.29L276.55,266l-19,0,8.94,29.55Z"/><path class="cls-2" d="M141.57,270.11,83.83,310.29A5.8,5.8,0,0,1,75,303.85l15.89-52.52-17-6.31L57.61,298.6a23.93,23.93,0,0,0,36.57,26.57l68.1-47.39Z"/><path class="cls-2" d="M319.12,125.67l24.23.41c-.15-.66-.33-1.32-.54-2a23.64,23.64,0,0,0-22.27-16.53l-90.77-1.85a5.83,5.83,0,0,1-5.36-3.9L194.61,16.07a23.93,23.93,0,0,0-45.2,0L119.6,101.82a5.82,5.82,0,0,1-5.36,3.89l-90.77,1.85a23.93,23.93,0,0,0-14,43l37,28.07,29.71-.23L20.46,136.11a5.8,5.8,0,0,1,3.39-10.42l90.77-1.85a24,24,0,0,0,22.11-16.06L166.53,22a5.8,5.8,0,0,1,11,0l29.81,85.75a24,24,0,0,0,22.11,16.06l89.71,1.83Z"/></svg>