<svg xmlns="http://www.w3.org/2000/svg" viewBox="0 0 255.62 421.08"><defs><style>.cls-1{fill:#6b6b6b;}</style></defs><title>iconArt</title><g id="Layer_2" data-name="Layer 2"><g id="_ÎÓÈ_1" data-name="—ÎÓÈ_1"><path class="cls-1" d="M48.56,416.08h-.11a7.58,7.58,0,0,1-5.53-2.74c-31.62-36-31-188.1-20.06-255.59a7.49,7.49,0,1,1,14.81,2.32c-5.74,35.58-7.95,89.36-5.62,137,2.23,45.56,8.23,80.07,16.81,97.75C59,376.61,65.59,341.79,67.8,294.71c2.36-50.22-1-103.33-5.29-133.68a7.5,7.5,0,1,1,14.85-2.12c4.11,28.78,8,81.8,5.42,136.5-2.86,60.84-12.52,100.7-28.73,118.1A7.69,7.69,0,0,1,48.56,416.08Z"/><path class="cls-1" d="M51.64,147.08h0a52.91,52.91,0,0,1-30.31-9A48,48,0,0,1,.4,103.47C-1.84,85,5.38,63.75,19.25,48.06l1.82-2c6.72-7.55,15.09-16.94,14.59-24.22-.2-2.92-1.93-5.72-5.29-8.58A7.5,7.5,0,0,1,36.14.06C50.74,1.85,66.8,12,83.87,30.37c11.32,12.15,18.49,27,21.94,45.32,3.37,18,0,42.43-15.1,56.54C80.59,141.68,66.35,147.08,51.64,147.08Zm-1-125.65C51.2,34.74,40.72,46.51,32.27,56l-1.78,2C19.54,70.39,13.58,87.53,15.3,101.68a33,33,0,0,0,14.56,24,38,38,0,0,0,21.78,6.4c10.95,0,21.46-3.95,28.83-10.84C91.36,111.11,93.59,92,91.06,78.45c-2.94-15.68-8.72-27.71-18.17-37.86C64.29,31.36,56.88,25.32,50.66,21.43Z"/><path class="cls-1" d="M49.79,235.92c-6.67,0-13.18-1-21.09-2.6a7.5,7.5,0,1,1,3-14.69c13.45,2.75,21.21,3.36,34.49,0a7.5,7.5,0,1,1,3.71,14.53A79.52,79.52,0,0,1,49.79,235.92Z"/><path class="cls-1" d="M247.52,124.08h0l-101.37-.3a7.57,7.57,0,0,1-6.72-10.9l21.7-44.15a7.5,7.5,0,1,1,13.46,6.61l-16.4,33.34,78.42.15L225.24,79.17a7.5,7.5,0,0,1,14-5.37l15.28,39.87a7.73,7.73,0,0,1-.83,7.05A7.61,7.61,0,0,1,247.52,124.08Z"/><path class="cls-1" d="M220.49,60.82h-.14L176.55,60a7.5,7.5,0,0,1-6.31-11.33l23-38.81a7.5,7.5,0,0,1,13.09.35l20.76,39.63a7.5,7.5,0,0,1-6.64,11ZM189.72,45.24l18.25.34-8.65-16.51Z"/><path class="cls-1" d="M247.67,382.08H145.93a7.5,7.5,0,0,1-7.5-7.45L136.74,142.8a7.62,7.62,0,0,1,7.45-7.72h.06a7.64,7.64,0,0,1,7.5,7.61l1.64,224.39h86.8v-228a7.5,7.5,0,0,1,15,0v235.5A7.5,7.5,0,0,1,247.67,382.08Z"/><path class="cls-1" d="M198,421.08h0c-24.83,0-51.31-5.5-59.39-44.71a7.5,7.5,0,1,1,14.69-3c5.63,27.34,20.06,32.68,44.7,32.68h0c20.9,0,42.24-10.89,42.62-31.36a7.58,7.58,0,0,1,7.64-7.46,7.46,7.46,0,0,1,7.36,7.59c-.25,13.6-6.83,25.91-18.52,34.34C226.63,416.76,212.74,421.08,198,421.08Z"/></g></g></svg>