<svg xmlns="http://www.w3.org/2000/svg" viewBox="0 0 279.87 274.57"><defs><style>.cls-1{fill:#6b6b6b;}</style></defs><title>iconPoetry</title><g id="Layer_2" data-name="Layer 2"><g id="_ÎÓÈ_1" data-name="—ÎÓÈ_1"><path class="cls-1" d="M7.5,274.57a7.5,7.5,0,0,1-5.26-12.84l251.84-248A7.5,7.5,0,0,1,264.6,24.46l-251.84,248A7.48,7.48,0,0,1,7.5,274.57Z"/><path class="cls-1" d="M42.6,239.48a7.5,7.5,0,0,1-6.51-3.77c-.63-1.09-15.23-27.29-4-68.27,6.7-24.37,21.16-48.91,43-72.93,27-29.66,65.36-58.68,114.14-86.25a7.5,7.5,0,0,1,11.18,6.2c0,.32,1.38,32.47,0,68.42a7.5,7.5,0,0,1-15-.58c.84-21.86.64-42.29.37-54.75C87.84,85.24,55.93,137.36,46.57,171.4c-9.62,35,2.4,56.63,2.53,56.85a7.5,7.5,0,0,1-6.5,11.23Z"/><path class="cls-1" d="M214.19,171.3h-91a7.5,7.5,0,0,1,0-15h91a7.5,7.5,0,0,1,0,15Z"/><path class="cls-1" d="M82.46,264.51a73.63,73.63,0,0,1-32.61-7.39,7.5,7.5,0,0,1,6.56-13.49c38.27,18.62,83.64-11.77,106.12-30.33H97.19a7.5,7.5,0,1,1,0-15H182a7.5,7.5,0,0,1,5.4,12.71C184.9,213.61,135.11,264.51,82.46,264.51Z"/><path class="cls-1" d="M250.3,131.3H162.19a7.5,7.5,0,0,1,0-15h84c6.95-11.33,28.59-51.75,13-93.51a7.5,7.5,0,1,1,14.06-5.23C294.4,74.17,258,126,256.4,128.17A7.5,7.5,0,0,1,250.3,131.3Z"/><path class="cls-1" d="M193.54,22.28a7.5,7.5,0,0,1-2.37-14.62c5.5-1.83,54.31-17.35,73.47,1.81A7.5,7.5,0,1,1,254,20.08c-9.56-9.56-40.73-4-58.13,1.82A7.5,7.5,0,0,1,193.54,22.28Z"/><path class="cls-1" d="M138.69,136.8a7.5,7.5,0,0,1-7.5-7.5v-75a7.5,7.5,0,1,1,15,0v75A7.5,7.5,0,0,1,138.69,136.8Z"/></g></g></svg>