<svg xmlns="http://www.w3.org/2000/svg" viewBox="0 0 377 373.5"><defs><style>.cls-1{fill:#6b6b6b;}</style></defs><title>iconPhotography</title><g id="Layer_2" data-name="Layer 2"><g id="_ÎÓÈ_1" data-name="—ÎÓÈ_1"><path class="cls-1" d="M193.6,373.5c-75,0-135.93-61-135.93-135.93s61-135.93,135.93-135.93,135.93,61,135.93,135.93S268.55,373.5,193.6,373.5Zm0-256.85A120.93,120.93,0,1,0,314.53,237.57,121.06,121.06,0,0,0,193.6,116.65Z"/><path class="cls-1" d="M194.6,321.24a85.56,85.56,0,1,1,85.56-85.56A85.65,85.65,0,0,1,194.6,321.24Zm0-156.11a70.56,70.56,0,1,0,70.56,70.56A70.64,70.64,0,0,0,194.6,165.13Z"/><path class="cls-1" d="M264.5,104.5A7.5,7.5,0,0,1,257,97V27.22c0-6.71-1.08-9.25-2-10.2-1.25-1.32-4.57-2-9.6-2H142.68C132.35,15,117,18.25,117,27.22V95a7.5,7.5,0,0,1-15,0V27.22C102,8.42,122.43,0,142.68,0H245.42C264,0,272,8.14,272,27.22V97A7.5,7.5,0,0,1,264.5,104.5Z"/><path class="cls-1" d="M91,369H40.82C22.13,369,0,346.49,0,327.47V143.25C0,124.42,20.5,116,40.82,116H94a7.5,7.5,0,0,1,0,15H40.82C30.44,131,15,134.26,15,143.25V327.47C15,338.13,30.44,354,40.82,354H91a7.5,7.5,0,0,1,0,15Z"/><path class="cls-1" d="M349.93,369H308a7.5,7.5,0,0,1,0-15h41.93c8.86,0,12.07-15.86,12.07-26.53V143.25c0-5.28-.71-8.68-2.12-10.11s-4.74-2.14-9.95-2.14H311a7.5,7.5,0,0,1,0-15h38.93c18.72,0,27.07,8.4,27.07,27.25V327.47c0,5.53-.64,16.22-5,25.64C367.34,363.36,359.49,369,349.93,369Z"/><path class="cls-1" d="M206.67,88H165.33C148.05,88,134,75.23,134,59.54V58.46C134,42.77,148.05,30,165.33,30h41.35C223.95,30,238,42.77,238,58.46v1.08C238,75.23,223.95,88,206.67,88ZM165.33,45c-9,0-16.33,6-16.33,13.46v1.08C149,67,156.32,73,165.33,73h41.35c9,0,16.33-6,16.33-13.46V58.46C223,51,215.68,45,206.67,45Z"/><path class="cls-1" d="M91,105H41a7.5,7.5,0,0,1,0-15H91a7.5,7.5,0,0,1,0,15Z"/></g></g></svg>