<svg xmlns="http://www.w3.org/2000/svg" viewBox="0 0 433.65 433.65"><defs><style>.cls-1{fill:#6b6b6b;}</style></defs><title>iconMusic</title><g id="Layer_2" data-name="Layer 2"><g id="_ÎÓÈ_1" data-name="—ÎÓÈ_1"><path class="cls-1" d="M216.82,433.65A216.82,216.82,0,0,1,63.51,63.51,216.82,216.82,0,0,1,370.14,370.14,215.41,215.41,0,0,1,216.82,433.65Zm0-418.65C105.54,15,15,105.54,15,216.82s90.54,201.82,201.82,201.82,201.83-90.54,201.83-201.82S328.11,15,216.82,15Z"/><path class="cls-1" d="M266.21,381a7.5,7.5,0,0,1-2-14.74A146.86,146.86,0,0,0,369.34,194.05,7.5,7.5,0,0,1,384,190.93,161.86,161.86,0,0,1,268.17,380.75,7.52,7.52,0,0,1,266.21,381Z"/><path class="cls-1" d="M263,342.29a7.5,7.5,0,0,1-2.4-14.61,108.59,108.59,0,0,0,73.86-103v-.42a7.5,7.5,0,0,1,15,0v.42a123.58,123.58,0,0,1-84.07,117.2A7.52,7.52,0,0,1,263,342.29Z"/><path class="cls-1" d="M53.77,241.58a7.5,7.5,0,0,1-7.42-6.45A161.85,161.85,0,0,1,174.89,53.67a7.5,7.5,0,0,1,2.92,14.71A146.85,146.85,0,0,0,61.2,233a7.51,7.51,0,0,1-7.43,8.56Z"/><path class="cls-1" d="M98.17,205.19l-15-1,0-.45A123.57,123.57,0,0,1,175.11,92.61a7.5,7.5,0,1,1,3.82,14.51A108.61,108.61,0,0,0,98.2,204.84Z"/><path class="cls-1" d="M216.82,305.5a88.68,88.68,0,1,1,88.68-88.68A88.78,88.78,0,0,1,216.82,305.5Zm0-162.36a73.68,73.68,0,1,0,73.68,73.68A73.76,73.76,0,0,0,216.82,143.14Z"/><path class="cls-1" d="M216.82,236A19.13,19.13,0,1,1,236,216.82,19.15,19.15,0,0,1,216.82,236Zm0-23.25a4.13,4.13,0,1,0,4.13,4.13A4.13,4.13,0,0,0,216.82,212.7Z"/></g></g></svg>